<svg width="120" height="39" viewBox="0 0 120 39" fill="none" xmlns="http://www.w3.org/2000/svg">
<path d="M9.38793 5.33576C9.38793 6.51176 9.03793 7.44976 8.33793 8.13576C7.55393 8.96176 6.53193 9.38176 5.25793 9.38176C4.03993 9.38176 3.00393 8.96176 2.16393 8.12176C1.32393 7.28176 0.903931 6.23176 0.903931 4.99976C0.903931 3.76776 1.32393 2.71776 2.16393 1.87776C3.00393 1.03776 4.03993 0.60376 5.25793 0.60376C5.87393 0.60376 6.46193 0.715759 7.00793 0.925759C7.55393 1.14976 8.00193 1.45776 8.35193 1.84976L7.58193 2.61976C7.32993 2.31176 6.99393 2.05976 6.57393 1.89176C6.15895 1.7112 5.71046 1.62055 5.25793 1.62576C4.34793 1.62576 3.56393 1.94776 2.93393 2.57776C2.30393 3.22176 1.99593 4.01976 1.99593 4.98576C1.99593 5.95176 2.30393 6.74976 2.93393 7.39376C3.56393 8.02376 4.33393 8.34576 5.25793 8.34576C6.09793 8.34576 6.78393 8.10776 7.34393 7.64576C7.90393 7.18376 8.22593 6.52576 8.30993 5.71376H5.25793V4.70576H9.33193C9.35993 4.92976 9.38793 5.13976 9.38793 5.33576ZM15.8419 0.799759V1.83576H12.0199V4.49576H15.4639V5.50376H12.0199V8.16376H15.8419V9.19976H10.9419V0.799759H15.8419ZM20.3919 1.83576V9.19976H19.3139V1.83576H16.9619V0.799759H22.7299V1.83576H20.3919ZM27.9939 9.19976H26.9159V0.799759H27.9939V9.19976ZM32.7819 1.83576V9.19976H31.7039V1.83576H29.3519V0.799759H35.1199V1.83576H32.7819ZM47.2859 4.99976C47.2859 6.24576 46.8659 7.28176 46.0399 8.12176C45.1999 8.96176 44.1779 9.38176 42.9599 9.38176C41.7419 9.38176 40.7199 8.96176 39.8799 8.12176C39.0539 7.28176 38.6339 6.24576 38.6339 4.99976C38.6339 3.75376 39.0539 2.71776 39.8799 1.87776C40.7059 1.03776 41.7279 0.60376 42.9599 0.60376C44.1779 0.60376 45.1999 1.02376 46.0399 1.87776C46.8799 2.73176 47.2859 3.76776 47.2859 4.99976ZM39.7539 4.99976C39.7539 5.96576 40.0619 6.77776 40.6639 7.40776C41.2799 8.03776 42.0499 8.35976 42.9599 8.35976C43.8699 8.35976 44.6399 8.03776 45.2419 7.40776C45.8579 6.77776 46.1659 5.97976 46.1659 4.99976C46.1659 4.01976 45.8579 3.22176 45.2419 2.59176C44.6259 1.96176 43.8699 1.63976 42.9599 1.63976C42.0499 1.63976 41.2799 1.96176 40.6639 2.59176C40.0619 3.22176 39.7539 4.03376 39.7539 4.99976ZM49.8759 9.19976H48.7979V0.799759H50.1139L54.2019 7.33776H54.2439L54.2019 5.71376V0.799759H55.2799V9.19976H54.1599L49.8899 2.35376H49.8479L49.8899 3.97776V9.19976H49.8759Z" fill="white" stroke="white" stroke-width="0.5" stroke-miterlimit="10"/>
<path d="M38.3958 21.4499C35.1058 21.4499 32.4178 23.9559 32.4178 27.3999C32.4178 30.8299 35.1058 33.3499 38.3958 33.3499C41.6858 33.3499 44.3738 30.8299 44.3738 27.3999C44.3738 23.9559 41.6858 21.4499 38.3958 21.4499ZM38.3958 31.0119C36.5898 31.0119 35.0358 29.5279 35.0358 27.3999C35.0358 25.2579 36.5898 23.7879 38.3958 23.7879C40.2018 23.7879 41.7558 25.2579 41.7558 27.3999C41.7558 29.5279 40.1878 31.0119 38.3958 31.0119ZM25.3478 21.4499C22.0578 21.4499 19.3698 23.9559 19.3698 27.3999C19.3698 30.8299 22.0578 33.3499 25.3478 33.3499C28.6378 33.3499 31.3258 30.8299 31.3258 27.3999C31.3258 23.9559 28.6378 21.4499 25.3478 21.4499ZM25.3478 31.0119C23.5418 31.0119 21.9878 29.5279 21.9878 27.3999C21.9878 25.2579 23.5418 23.7879 25.3478 23.7879C27.1538 23.7879 28.7078 25.2579 28.7078 27.3999C28.7078 29.5279 27.1538 31.0119 25.3478 31.0119ZM9.83581 23.2839V25.8039H15.8838C15.7018 27.2179 15.2258 28.2679 14.5118 28.9819C13.6298 29.8639 12.2578 30.8299 9.84981 30.8299C6.12581 30.8299 3.21381 27.8339 3.21381 24.1099C3.21381 20.3859 6.12581 17.3899 9.84981 17.3899C11.8518 17.3899 13.3218 18.1739 14.3998 19.1959L16.1778 17.4179C14.6658 15.9759 12.6638 14.8699 9.83581 14.8699C4.73981 14.8699 0.455811 19.0139 0.455811 24.1239C0.455811 29.2199 4.73981 33.3779 9.83581 33.3779C12.5938 33.3779 14.6658 32.4819 16.2898 30.7879C17.9558 29.1219 18.4738 26.7699 18.4738 24.8799C18.4738 24.2919 18.4318 23.7459 18.3338 23.2979H9.83581V23.2839ZM73.2698 25.2439C72.7798 23.9139 71.2678 21.4499 68.1738 21.4499C65.1078 21.4499 62.5598 23.8579 62.5598 27.3999C62.5598 30.7319 65.0798 33.3499 68.4678 33.3499C71.1978 33.3499 72.7798 31.6839 73.4238 30.7179L71.3938 29.3599C70.7218 30.3539 69.7978 31.0119 68.4678 31.0119C67.1378 31.0119 66.1858 30.4099 65.5838 29.2059L73.5498 25.9159L73.2698 25.2439ZM65.1498 27.2319C65.0798 24.9359 66.9278 23.7599 68.2578 23.7599C69.2938 23.7599 70.1758 24.2779 70.4698 25.0199L65.1498 27.2319ZM58.6818 32.9999H61.2998V15.4999H58.6818V32.9999ZM54.3978 22.7799H54.2998C53.7118 22.0799 52.5918 21.4499 51.1638 21.4499C48.1818 21.4499 45.4518 24.0679 45.4518 27.4279C45.4518 30.7599 48.1818 33.3639 51.1638 33.3639C52.5778 33.3639 53.7118 32.7339 54.2998 32.0059H54.3838V32.8599C54.3838 35.1419 53.1658 36.3599 51.2058 36.3599C49.6098 36.3599 48.6158 35.2119 48.2098 34.2459L45.9278 35.1979C46.5858 36.7799 48.3218 38.7119 51.2058 38.7119C54.2718 38.7119 56.8618 36.9059 56.8618 32.5099V21.8139H54.3838V22.7799H54.3978ZM51.3878 31.0119C49.5818 31.0119 48.0698 29.4999 48.0698 27.4279C48.0698 25.3279 49.5818 23.8019 51.3878 23.8019C53.1658 23.8019 54.5658 25.3419 54.5658 27.4279C54.5798 29.4999 53.1798 31.0119 51.3878 31.0119ZM85.5338 15.4999H79.2758V32.9999H81.8938V26.3639H85.5478C88.4458 26.3639 91.2878 24.2639 91.2878 20.9319C91.2738 17.5999 88.4178 15.4999 85.5338 15.4999ZM85.5898 23.9279H81.8798V17.9219H85.5898C87.5498 17.9219 88.6558 19.5459 88.6558 20.9179C88.6558 22.2899 87.5498 23.9279 85.5898 23.9279ZM101.746 21.4219C99.8558 21.4219 97.8958 22.2619 97.0838 24.0959L99.4078 25.0619C99.8978 24.0959 100.822 23.7739 101.788 23.7739C103.132 23.7739 104.518 24.5859 104.532 26.0279V26.2099C104.056 25.9439 103.048 25.5379 101.802 25.5379C99.2958 25.5379 96.7618 26.9099 96.7618 29.4719C96.7618 31.8099 98.8058 33.3219 101.102 33.3219C102.852 33.3219 103.832 32.5379 104.434 31.6139H104.518V32.9579H107.038V26.2519C107.052 23.1579 104.728 21.4219 101.746 21.4219ZM101.424 31.0119C100.57 31.0119 99.3798 30.5779 99.3798 29.5279C99.3798 28.1839 100.864 27.6659 102.152 27.6659C103.3 27.6659 103.846 27.9179 104.532 28.2539C104.435 29.0116 104.066 29.7085 103.495 30.2156C102.924 30.7227 102.188 31.0056 101.424 31.0119ZM116.236 21.7999L113.24 29.3879H113.156L110.048 21.7999H107.234L111.896 32.4119L109.236 38.3059H111.966L119.148 21.7999H116.236ZM92.7158 32.9999H95.3338V15.4999H92.7158V32.9999Z" fill="white"/>
</svg>
